<svg xmlns="http://www.w3.org/2000/svg" viewBox="0 0 1988.52 631.23"><defs><style>.a,.b,.c,.d,.e,.f,.g,.h,.i,.j{fill:none;stroke-miterlimit:10;}.a{stroke:#3b0732;}.a,.b,.d,.f,.g,.j{opacity:0.33;}.b{stroke:#46133e;}.c{stroke:#511f49;}.c,.h,.i{opacity:0.33;}.d{stroke:#5d2c55;}.e{stroke:#683861;opacity:0.33;}.f{stroke:#73446c;}.g{stroke:#7e5078;}.h{stroke:#8a5d84;}.i{stroke:#95698f;}.j{stroke:#a0759b;}</style></defs><path class="a" d="M-15,183.43S464.67,161.94,586.57,363.1C705.88,560,606.45,619,896.05,605.37s471.06-41.74,425.07-136.11c-29.7-60.94,294.46-139.74,331.8,10.44s343.1,45.82,312-36.75" transform="translate(15.02 -182.27)"/><path class="b" d="M-8.56,207.93c1.94-1.21,468-18.69,595.45,181,122.23,192.67,17.54,253,307.14,239.36s467.69-48.7,425.07-136.11c-29.74-60.93,294.46-139.74,331.8,10.44s344.29,30.39,314.87-52.08" transform="translate(15.02 -182.27)"/><path class="c" d="M-2.11,232.42C1.76,230,454.68,216.21,587.22,414.71,712.83,602.82,602.41,664.76,892,651.15S1356.34,595.48,1317.08,515c-29.79-60.92,294.45-139.74,331.8,10.43s345.48,15,317.72-67.41" transform="translate(15.02 -182.27)"/><path class="d" d="M4.33,256.92c5.81-3.64,445.24-13.53,583.22,183.6C716.19,624.29,600.39,687.65,890,674s461-62.62,425.07-136.11c-29.84-60.9,294.45-139.74,331.8,10.44s346.67-.47,320.57-82.74" transform="translate(15.02 -182.27)"/><path class="e" d="M10.78,281.41c7.73-4.85,433.61-10.79,577.1,184.91C719.48,645.8,598.37,710.53,888,696.92s457.6-69.58,425.08-136.11c-29.88-60.89,294.45-139.74,331.8,10.44s347.86-15.9,323.42-98.07" transform="translate(15.02 -182.27)"/><path class="f" d="M17.22,305.91c9.67-6.06,421.92-8,571,186.22,134.49,175.23,8.14,241.29,297.73,227.68S1340.18,643.26,1311,583.7c-29.93-60.88,294.45-139.74,331.8,10.43s349-31.32,326.27-113.39" transform="translate(15.02 -182.27)"/><path class="g" d="M23.67,330.41c11.6-7.28,410.15-5.17,564.87,187.53,137.32,171,5.79,238.37,295.38,224.76S1334.79,659.19,1309,606.59c-30-60.87,294.45-139.74,331.79,10.43s350.26-46.76,329.13-128.73" transform="translate(15.02 -182.27)"/><path class="h" d="M30.11,354.9c13.54-8.49,398.32-2.27,558.75,188.84,140.1,166.88,3.45,235.45,293,221.84S1329.41,675.11,1307,629.47c-30-60.85,294.46-139.74,331.8,10.44s351.45-62.19,332-144.06" transform="translate(15.02 -182.27)"/><path class="i" d="M36.56,379.4c15.47-9.7,386.15.93,552.63,190.15,142.59,163,1.09,232.53,290.69,218.92S1324,691,1305,652.36c-30.06-60.84,294.46-139.74,331.8,10.43s352.64-77.61,334.82-159.38" transform="translate(15.02 -182.27)"/><path class="j" d="M43,403.89C60.41,393,417.46,407.63,589.52,595.35,735,754.1,588.26,825,877.86,811.36S1318.64,707,1302.93,675.25c-30.11-60.83,294.46-139.74,331.8,10.43s353.83-93,337.67-174.71" transform="translate(15.02 -182.27)"/></svg>