<svg xmlns="http://www.w3.org/2000/svg" viewBox="0 0 1988.52 631.23"><path d="M.02 1.16s479.67-21.49 601.57 179.67c119.31 196.9 19.88 255.9 309.48 242.27s471.06-41.74 425.07-136.11c-29.7-60.94 294.46-139.74 331.8 10.44s343.1 45.82 312-36.75" opacity=".33" stroke="#3b0732" fill="none" stroke-miterlimit="10"/><path d="M6.46 25.66c1.94-1.21 468-18.69 595.45 181 122.23 192.67 17.54 253 307.14 239.36s467.69-48.7 425.07-136.11c-29.74-60.93 294.46-139.74 331.8 10.44s344.29 30.39 314.87-52.08" stroke="#46133e" opacity=".33" fill="none" stroke-miterlimit="10"/><path d="M12.91 50.15c3.87-2.42 456.79-16.21 589.33 182.29 125.61 188.11 15.19 250.05 304.78 236.44s464.34-55.67 425.08-136.15c-29.79-60.92 294.45-139.74 331.8 10.43s345.48 15 317.72-67.41" opacity=".33" stroke="#511f49" fill="none" stroke-miterlimit="10"/><path d="M19.35 74.65c5.81-3.64 445.24-13.53 583.22 183.6 128.64 183.77 12.84 247.13 302.45 233.48s461-62.62 425.07-136.11c-29.84-60.9 294.45-139.74 331.8 10.44s346.67-.47 320.57-82.74" stroke="#5d2c55" opacity=".33" fill="none" stroke-miterlimit="10"/><path d="M25.8 99.14c7.73-4.85 433.61-10.79 577.1 184.91 131.6 179.48 10.49 244.21 300.12 230.6s457.6-69.58 425.08-136.11c-29.88-60.89 294.45-139.74 331.8 10.44s347.86-15.9 323.42-98.07" stroke="#683861" opacity=".33" fill="none" stroke-miterlimit="10"/><path d="M32.24 123.64c9.67-6.06 421.92-8 571 186.22 134.49 175.23 8.14 241.29 297.73 227.68s454.23-76.55 425.05-136.11c-29.93-60.88 294.45-139.74 331.8 10.43s349-31.32 326.27-113.39" stroke="#73446c" opacity=".33" fill="none" stroke-miterlimit="10"/><path d="M38.69 148.14c11.6-7.28 410.15-5.17 564.87 187.53 137.32 171 5.79 238.37 295.38 224.76s450.87-83.51 425.08-136.11c-30-60.87 294.45-139.74 331.79 10.43s350.26-46.76 329.13-128.73" stroke="#7e5078" opacity=".33" fill="none" stroke-miterlimit="10"/><path d="M45.13 172.63c13.54-8.49 398.32-2.27 558.75 188.84 140.1 166.88 3.45 235.45 293 221.84s447.55-90.47 425.14-136.11c-30-60.85 294.46-139.74 331.8 10.44s351.45-62.19 332-144.06" stroke="#8a5d84" opacity=".33" fill="none" stroke-miterlimit="10"/><path d="M51.58 197.13c15.47-9.7 386.15.93 552.63 190.15 142.59 163 1.09 232.53 290.69 218.92s444.12-97.47 425.12-136.11c-30.06-60.84 294.46-139.74 331.8 10.43s352.64-77.61 334.82-159.38" stroke="#95698f" opacity=".33" fill="none" stroke-miterlimit="10"/><path d="M58.02 221.62c17.41-10.89 374.46 3.74 546.52 191.46 145.48 158.75-1.26 229.65 288.34 216.01s440.78-104.36 425.07-136.11c-30.11-60.83 294.46-139.74 331.8 10.43s353.83-93 337.67-174.71" stroke="#a0759b" opacity=".33" fill="none" stroke-miterlimit="10"/></svg>