<svg xmlns="http://www.w3.org/2000/svg" viewBox="0 0 2006.3 1291.8"><defs><style>.a,.b,.c,.d,.e,.f,.g,.h,.i,.j{fill:none;stroke-miterlimit:10;stroke-width:5px;}.a{stroke:#391233;}.b{stroke:#4b2947;}.c{stroke:#5d405b;}.d{stroke:#70566f;}.e{stroke:#826d83;}.f{stroke:#948498;}.g{stroke:#a69bac;}.h{stroke:#b9b1c0;}.i{stroke:#cbc8d4;}.j{stroke:#dddfe8;}</style></defs><path class="a" d="M.5,1401.5c11-5,294.24,237.59,553,93,249.58-139.46,164-20,285-7s187,23,355-37c376.53-134.48,306.3-173.83,278-251-28.76-78.42,81-503,254-432s297-15,275-158" transform="translate(0.77 -251.24)"/><path class="b" d="M.5,1355.06c47.44,17.77,300.94,253.63,553.33,107.88,247-143.33,164.34-18.44,285.34-5.44s186.9,4.42,353.44-58.67c350.58-132.81,305.49-193.18,277.67-270.66-28.23-78.59,83.28-471.2,256-399.56,172.92,71.74,292.78-22.11,274.22-158.89" transform="translate(0.77 -251.24)"/><path class="c" d="M.5,1308.61c83.89,40.56,307.63,269.68,553.67,122.78,244.47-147.21,164.66-16.89,285.66-3.89s186.81-14,351.89-80.33c324.78-130.53,304.68-212.53,277.34-290.34-27.71-78.76,85.55-439.4,258-367.11,172.84,72.47,288.55-29.22,273.44-159.78" transform="translate(0.77 -251.24)"/><path class="d" d="M.5,1262.17c120.33,63.33,314.69,286.3,554,137.66,242.29-150.49,165-15.33,286-2.33s186.74-32.21,350.33-102c299.15-127.62,303.87-231.88,277-310-27.17-78.94,87.84-407.6,260-334.67C1900.6,724,2012.17,614.5,2000.5,490.17" transform="translate(0.77 -251.24)"/><path class="e" d="M.5,1215.72c156.78,86.11,321.43,302.41,554.33,152.56,239.8-154.3,165.34-13.78,286.34-.78s186.73-50.2,348.77-123.67c273.73-124.1,303.06-251.23,276.67-329.66-26.64-79.12,90.11-375.8,262-302.23,172.69,73.94,280.11-43.44,271.89-161.55" transform="translate(0.77 -251.24)"/><path class="f" d="M.5,1169.28c193.22,108.89,328.14,318.45,554.67,167.44,237.26-158.16,165.66-12.22,286.66.78s186.84-67.9,347.23-145.33c248.53-120,302.24-270.59,276.33-349.34-26.12-79.29,92.39-344,264-269.77C1902,647.73,2005.28,522.5,2000.5,410.61" transform="translate(0.77 -251.24)"/><path class="g" d="M.5,1122.83c229.67,131.67,334.8,334.43,555,182.34,234.68-162.1,166-10.67,287,2.33s187.1-85.25,345.67-167c223.61-115.28,301.43-289.94,276-369-25.59-79.47,94.66-312.2,266-237.33,172.53,75.4,271.66-57.67,270.33-163.34" transform="translate(0.77 -251.24)"/><path class="h" d="M.5,1076.39c266.11,154.44,341.42,350.34,555.33,197.22,232.06-166.1,166.34-9.11,287.34,3.89s187.61-102.15,344.11-188.67c199-110,300.62-309.29,275.66-388.66-25-79.65,97-280.4,268-204.89,172.47,76.14,267.45-64.78,269.56-164.22" transform="translate(0.77 -251.24)"/><path class="i" d="M.5,1029.94c302.56,177.23,347.8,366,555.67,212.12,229.16-170.45,166.66-7.56,287.66,5.44s188.52-118.46,342.56-210.33c174.78-104.24,299.81-328.65,275.33-408.34s99.22-248.6,270-172.44c172.39,76.88,263.22-71.89,268.78-165.11" transform="translate(0.77 -251.24)"/><path class="j" d="M.5,983.5c339,200,354.5,382,556,227,226.61-174.32,167-6,288,7s190-134,341-232,299-348,275-428,101.5-216.8,272-140c172.31,77.61,259-79,268-166" transform="translate(0.77 -251.24)"/></svg>